<svg width="56" height="46" viewBox="0 0 56 46" fill="none" xmlns="http://www.w3.org/2000/svg">
<rect width="56" height="46" rx="2" fill="#224332"/>
<path d="M28.832 13.92C29.984 13.92 30.5813 14.5173 30.624 15.712L31.456 36H26.944L26.208 17.696H25.632L22.08 31.456C21.888 32.48 21.248 32.992 20.16 32.992H17.088C16 32.992 15.3387 32.48 15.104 31.456L11.552 17.696H11.008L10.336 36H5.792L6.624 15.712C6.66667 14.5173 7.27467 13.92 8.448 13.92H13.024C14.0693 13.92 14.7093 14.4427 14.944 15.488L17.792 26.592C17.92 27.104 18.0267 27.6267 18.112 28.16C18.1973 28.672 18.2933 29.1947 18.4 29.728H18.816C18.9227 29.1947 19.0187 28.672 19.104 28.16C19.2107 27.6267 19.3173 27.0933 19.424 26.56L22.24 15.488C22.4533 14.4427 23.0933 13.92 24.16 13.92H28.832ZM51.1053 20.192L45.4413 36.192C45.1853 36.9813 44.8226 37.7707 44.3533 38.56C43.9053 39.3707 43.3293 40.096 42.6253 40.736C41.9426 41.376 41.1106 41.856 40.1293 42.176C39.1693 42.5173 38.0279 42.6027 36.7053 42.432L36.3533 39.744C37.6546 39.4027 38.6679 38.944 39.3933 38.368C40.1186 37.792 40.6839 37.0347 41.0893 36.096L42.0813 33.888C42.2733 33.4187 42.4546 32.8533 42.6253 32.192C42.8173 31.5093 42.9773 30.9227 43.1053 30.432L46.0493 20.192H51.1053ZM38.5613 20.192L41.5693 30.432C41.6546 30.8373 41.7399 31.2427 41.8253 31.648C41.9106 32.0533 41.9853 32.4587 42.0493 32.864H42.9133L41.4093 36H40.2573C39.8946 36 39.5746 35.8933 39.2973 35.68C39.0199 35.4667 38.8279 35.1893 38.7213 34.848L33.5053 20.192H38.5613Z" fill="#F3EEE1"/>
</svg>
