<svg width="149" height="50" viewBox="0 0 149 50" fill="none" xmlns="http://www.w3.org/2000/svg">
<path d="M28.832 15.92C29.984 15.92 30.5813 16.5173 30.624 17.712L31.456 38H26.944L26.208 19.696H25.632L22.08 33.456C21.888 34.48 21.248 34.992 20.16 34.992H17.088C16 34.992 15.3387 34.48 15.104 33.456L11.552 19.696H11.008L10.336 38H5.792L6.624 17.712C6.66667 16.5173 7.27467 15.92 8.448 15.92H13.024C14.0693 15.92 14.7093 16.4427 14.944 17.488L17.792 28.592C17.92 29.104 18.0267 29.6267 18.112 30.16C18.1973 30.672 18.2933 31.1947 18.4 31.728H18.816C18.9227 31.1947 19.0187 30.672 19.104 30.16C19.2107 29.6267 19.3173 29.0933 19.424 28.56L22.24 17.488C22.4533 16.4427 23.0933 15.92 24.16 15.92H28.832ZM51.1053 22.192L45.4413 38.192C45.1853 38.9813 44.8226 39.7707 44.3533 40.56C43.9053 41.3707 43.3293 42.096 42.6253 42.736C41.9426 43.376 41.1106 43.856 40.1293 44.176C39.1693 44.5173 38.0279 44.6027 36.7053 44.432L36.3533 41.744C37.6546 41.4027 38.6679 40.944 39.3933 40.368C40.1186 39.792 40.6839 39.0347 41.0893 38.096L42.0813 35.888C42.2733 35.4187 42.4546 34.8533 42.6253 34.192C42.8173 33.5093 42.9773 32.9227 43.1053 32.432L46.0493 22.192H51.1053ZM38.5613 22.192L41.5693 32.432C41.6546 32.8373 41.7399 33.2427 41.8253 33.648C41.9106 34.0533 41.9853 34.4587 42.0493 34.864H42.9133L41.4093 38H40.2573C39.8946 38 39.5746 37.8933 39.2973 37.68C39.0199 37.4667 38.8279 37.1893 38.7213 36.848L33.5053 22.192H38.5613Z" fill="#224332"/>
<rect x="54" y="4" width="91" height="42" rx="4" fill="#224332"/>
<path d="M67.504 13.504C68.592 13.504 69.776 13.568 71.056 13.696C72.336 13.8027 73.584 14.0373 74.8 14.4L74.48 17.632C73.5413 17.6107 72.4427 17.5893 71.184 17.568C69.9253 17.5467 68.688 17.536 67.472 17.536C66.8747 17.536 66.3627 17.5573 65.936 17.6C65.5307 17.6213 65.2 17.7067 64.944 17.856C64.688 17.984 64.5067 18.1867 64.4 18.464C64.2933 18.7413 64.24 19.1253 64.24 19.616C64.24 20.3627 64.4107 20.9067 64.752 21.248C65.1147 21.5893 65.7227 21.8987 66.576 22.176L70.832 23.552C72.6027 24.1493 73.8293 24.96 74.512 25.984C75.1947 27.008 75.536 28.352 75.536 30.016C75.536 31.2747 75.3867 32.32 75.088 33.152C74.7893 33.984 74.32 34.6347 73.68 35.104C73.04 35.5733 72.1973 35.904 71.152 36.096C70.1067 36.3093 68.8267 36.416 67.312 36.416C66.5867 36.416 65.552 36.3627 64.208 36.256C62.864 36.1707 61.328 35.936 59.6 35.552L59.92 32.096C61.1787 32.1173 62.2667 32.1493 63.184 32.192C64.1227 32.2133 64.9227 32.2347 65.584 32.256C66.2453 32.256 66.8213 32.256 67.312 32.256C68.1653 32.256 68.8267 32.2027 69.296 32.096C69.7867 31.9893 70.128 31.776 70.32 31.456C70.512 31.136 70.608 30.6773 70.608 30.08C70.608 29.568 70.5333 29.1627 70.384 28.864C70.256 28.544 70.032 28.2987 69.712 28.128C69.4133 27.936 68.9973 27.7653 68.464 27.616L63.984 26.08C62.2987 25.4613 61.104 24.6507 60.4 23.648C59.696 22.6453 59.344 21.3227 59.344 19.68C59.344 18.4 59.4933 17.3653 59.792 16.576C60.112 15.7653 60.592 15.136 61.232 14.688C61.8933 14.24 62.736 13.9307 63.76 13.76C64.8053 13.5893 66.0533 13.504 67.504 13.504ZM84.7523 15.808V30.944C84.7523 31.52 84.8803 31.936 85.1363 32.192C85.4136 32.4267 85.8616 32.544 86.4803 32.544H88.5283L89.0403 35.744C88.6563 35.872 88.1869 35.9787 87.6323 36.064C87.0776 36.1707 86.5229 36.2453 85.9683 36.288C85.4136 36.352 84.9443 36.384 84.5603 36.384C83.1309 36.384 82.0109 36 81.2003 35.232C80.4109 34.464 80.0163 33.3867 80.0163 32L79.9843 15.808H84.7523ZM89.1683 20.192V23.296H77.2323V20.352L80.3043 20.192H89.1683ZM99.2213 19.776C101.205 19.776 102.795 20.0533 103.989 20.608C105.184 21.1413 106.037 22.016 106.549 23.232C107.083 24.448 107.349 26.08 107.349 28.128C107.349 30.1333 107.083 31.744 106.549 32.96C106.037 34.176 105.184 35.0507 103.989 35.584C102.795 36.1173 101.205 36.384 99.2213 36.384C97.2586 36.384 95.6693 36.1173 94.4533 35.584C93.2586 35.0507 92.3946 34.176 91.8613 32.96C91.3279 31.744 91.0613 30.1333 91.0613 28.128C91.0613 26.08 91.3279 24.448 91.8613 23.232C92.3946 22.016 93.2586 21.1413 94.4533 20.608C95.6693 20.0533 97.2586 19.776 99.2213 19.776ZM99.2213 23.232C98.4106 23.232 97.7706 23.3707 97.3013 23.648C96.8319 23.9253 96.5013 24.416 96.3093 25.12C96.1173 25.824 96.0213 26.8267 96.0213 28.128C96.0213 29.408 96.1173 30.4 96.3093 31.104C96.5013 31.808 96.8319 32.2987 97.3013 32.576C97.7706 32.832 98.4106 32.96 99.2213 32.96C100.032 32.96 100.672 32.832 101.141 32.576C101.611 32.2987 101.941 31.808 102.133 31.104C102.325 30.4 102.421 29.408 102.421 28.128C102.421 26.8267 102.325 25.824 102.133 25.12C101.941 24.416 101.611 23.9253 101.141 23.648C100.672 23.3707 100.032 23.232 99.2213 23.232ZM114.288 20.192L114.864 23.328L115.312 23.744V36H110.576V20.192H114.288ZM122 19.776L121.552 24.16H120.24C119.494 24.16 118.715 24.2667 117.904 24.48C117.094 24.6933 116.07 25.0133 114.832 25.44L114.512 22.784C115.622 21.8027 116.742 21.056 117.872 20.544C119.003 20.032 120.102 19.776 121.168 19.776H122ZM131.47 19.776C134.137 19.776 136.047 20.2347 137.199 21.152C138.372 22.048 138.958 23.392 138.958 25.184C138.98 26.6347 138.617 27.7227 137.871 28.448C137.124 29.152 135.833 29.504 133.999 29.504H125.167V26.848H132.687C133.412 26.848 133.871 26.6987 134.063 26.4C134.276 26.08 134.383 25.6427 134.383 25.088C134.361 24.3413 134.137 23.8293 133.711 23.552C133.305 23.2533 132.612 23.104 131.631 23.104C130.756 23.104 130.073 23.2213 129.583 23.456C129.092 23.6907 128.751 24.1387 128.559 24.8C128.367 25.4613 128.271 26.4213 128.271 27.68C128.271 29.0027 128.388 30.0267 128.623 30.752C128.857 31.456 129.252 31.9467 129.807 32.224C130.383 32.5013 131.172 32.64 132.175 32.64C132.9 32.64 133.796 32.6187 134.863 32.576C135.951 32.512 137.039 32.416 138.127 32.288L138.575 35.2C137.956 35.4987 137.252 35.7333 136.463 35.904C135.673 36.0747 134.863 36.192 134.031 36.256C133.199 36.3413 132.399 36.384 131.631 36.384C129.625 36.384 128.004 36.096 126.766 35.52C125.551 34.9227 124.665 34.016 124.111 32.8C123.577 31.584 123.311 30.0267 123.311 28.128C123.311 26.0587 123.588 24.416 124.143 23.2C124.697 21.984 125.572 21.1093 126.766 20.576C127.961 20.0427 129.529 19.776 131.47 19.776Z" fill="#F3EEE1"/>
</svg>
